<svg xmlns="http://www.w3.org/2000/svg" xmlns:xlink="http://www.w3.org/1999/xlink" width="23" height="21.887" viewBox="0 0 23 21.887">
  <defs>
    <clipPath id="clip-path">
      <rect id="Rectangle_6" data-name="Rectangle 6" width="23" height="21.887" fill="none"/>
    </clipPath>
  </defs>
  <g id="Group_6" data-name="Group 6" transform="translate(0 0)">
    <g id="Group_5" data-name="Group 5" transform="translate(0 0)" clip-path="url(#clip-path)">
      <path id="Path_16" data-name="Path 16" d="M21.23,1.885A6.428,6.428,0,0,0,16.317,0H12V3.973a.861.861,0,1,0,1.722,0V1.723h2.6a4.8,4.8,0,0,1,3.648,1.329,5.893,5.893,0,0,1,1.309,3.925v.382H4.32c0-.951.017-1.944.054-2.841.077-1.941-2.8-2.5-3.378-2.594a.861.861,0,0,0-.274,1.7,3.291,3.291,0,0,1,1.931.825c-.118,2.943-.011,6.865,0,7.227A6.789,6.789,0,0,0,5.01,17.188a3.887,3.887,0,1,0,7.685.961h.482a3.887,3.887,0,1,0,7.683-.971,4.365,4.365,0,0,0,.416-.344,6.4,6.4,0,0,0,1.718-5.057V7.058A7.55,7.55,0,0,0,21.23,1.885M8.814,20.2a2.2,2.2,0,1,1,2.2-2.2,2.2,2.2,0,0,1-2.2,2.2m8.244,0a2.2,2.2,0,1,1,2.2-2.2,2.2,2.2,0,0,1-2.2,2.2m3.056-4.636-.014.013a3.884,3.884,0,0,0-6.6.85H12.37a3.885,3.885,0,0,0-6.6-.852,5.59,5.59,0,0,1-1.4-3.871v-.054c0-.021-.032-1.109-.047-2.569H21.273V11.8a4.831,4.831,0,0,1-1.159,3.764" transform="translate(0 0)" fill="#7a7b7e"/>
    </g>
  </g>
</svg>
