<?xml version="1.0" encoding="UTF-8"?><svg id="Layer_1" xmlns="http://www.w3.org/2000/svg" viewBox="0 0 53.83 53.83"><defs><style>.cls-1{fill:#fff;}.cls-2{fill:#fec553;}</style></defs><circle class="cls-2" cx="26.92" cy="26.92" r="26.92" transform="translate(-11.15 26.92) rotate(-45)"/><path class="cls-1" d="m26.92,0C12.05,0,0,12.05,0,26.91s12.05,26.91,26.92,26.91,26.92-12.05,26.92-26.91S41.78,0,26.92,0Zm0,8.05c4.92,0,8.9,3.99,8.9,8.9s-3.99,8.9-8.9,8.9-8.9-3.99-8.9-8.9,3.99-8.9,8.9-8.9Zm0,38.74c-4.91,0-9.4-1.79-12.86-4.74-.84-.72-1.33-1.78-1.33-2.88,0-4.99,4.04-8.98,9.02-8.98h10.36c4.99,0,9.01,3.99,9.01,8.98,0,1.11-.48,2.16-1.33,2.88-3.46,2.96-7.96,4.74-12.86,4.74Z"/></svg>