<?xml version="1.0" encoding="UTF-8"?><svg id="Layer_1" xmlns="http://www.w3.org/2000/svg" viewBox="0 0 30.63 30.63"><defs><style>.cls-1{fill:#31384b;}</style></defs><path class="cls-1" d="m19.26,15.32l10.6-10.6c1.03-1.03,1.03-2.7,0-3.73l-.21-.21c-1.03-1.03-2.7-1.03-3.73,0l-10.6,10.6L4.72.77C3.69-.26,2.02-.26.99.77l-.21.21C-.26,2.02-.26,3.69.77,4.72l10.6,10.6L.77,25.92c-1.03,1.03-1.03,2.7,0,3.73l.21.21c1.03,1.03,2.7,1.03,3.73,0l10.6-10.6,10.6,10.6c1.03,1.03,2.7,1.03,3.73,0l.21-.21c1.03-1.03,1.03-2.7,0-3.73l-10.6-10.6Z"/></svg>