<?xml version="1.0" encoding="UTF-8"?><svg id="Layer_1" xmlns="http://www.w3.org/2000/svg" viewBox="0 0 33.63 33.17"><defs><style>.cls-1{fill:#31384b;}</style></defs><path class="cls-1" d="m32.83,28.54l-7.73-7.73c1.31-2.09,2.08-4.56,2.08-7.22C27.18,6.08,21.09,0,13.59,0S0,6.08,0,13.59s6.08,13.59,13.59,13.59c2.89,0,5.56-.9,7.76-2.44l7.64,7.64c.53.53,1.23.79,1.92.79s1.39-.26,1.92-.79c1.06-1.06,1.06-2.78,0-3.84Zm-19.24-5.76c-5.07,0-9.19-4.11-9.19-9.19S8.52,4.4,13.59,4.4s9.19,4.11,9.19,9.19-4.11,9.19-9.19,9.19Z"/></svg>