<?xml version="1.0" encoding="UTF-8"?><svg id="Layer_1" xmlns="http://www.w3.org/2000/svg" viewBox="0 0 273.64 119.18"><defs><style>.cls-1{fill:#31384b;}.cls-2{fill:#f06430;}</style></defs><path class="cls-1" d="m.02,38.78c-.31-4.68,3.32-8.83,8-9.14s8.83,3.32,9.14,8l4.31,65.12c.31,4.68-3.32,8.83-8,9.14-4.68.31-8.83-3.32-9.14-8L.02,38.78Zm22.87,36.1c-.93-1.02-2.01-2.57-2.16-4.84-.14-2.05.51-3.72,1.4-4.97l24.13-33c1.29-1.82,3.49-2.94,5.64-3.08,4.2-.28,7.77,2.84,8.05,7.05.14,2.05-.41,3.6-1.5,5.08l-15.54,21.23c-2.38,3.26-2.09,7.75.7,10.67l19.03,19.91c1.52,1.63,2.06,3.33,2.18,5.16.3,4.53-3.03,8.21-7.45,8.51-2.37.16-4.7-.66-6.45-2.5l-28.03-29.22Z"/><path class="cls-2" d="m74.34,71.84V29.29c0-5.56,4.61-10.16,10.16-10.16s10.16,4.61,10.16,10.16v43.9c0,11.65,7.18,17.48,16.12,17.48s16.39-5.83,16.39-17.48V22.25c0-5.56,4.61-10.16,10.16-10.16s10.16,4.61,10.16,10.16v49.59c0,23.03-16.12,37.8-36.72,37.8s-36.45-14.77-36.45-37.8Z"/><path class="cls-1" d="m164.03,77.04l-3.2-52.15c-.4-6.52,3.98-12.21,9.67-12.56s10.73,4.77,11.13,11.29l3.29,53.74c.84,13.67,8.61,20.06,17.76,19.5,9.43-.58,16.36-7.86,15.52-21.54l-3.79-61.78c-.4-6.52,3.98-12.21,9.67-12.56s10.73,4.77,11.13,11.29l3.69,60.19c1.67,27.19-11.11,45.2-34.86,46.66-20.8,1.27-38.37-15.04-40.02-42.07Z"/><path class="cls-1" d="m252.8,11.95c0-6.53,4.72-11.95,10.42-11.95s10.42,5.42,10.42,11.95v90.78c0,6.53-4.72,11.95-10.42,11.95s-10.42-5.42-10.42-11.95V11.95Z"/></svg>